<svg width="121" height="19" viewBox="0 0 121 19" fill="none" xmlns="http://www.w3.org/2000/svg">
<path d="M32.7164 1.30836C33.9463 1.30836 35.1761 1.30836 36.4432 1.30836C37.0021 2.14668 37.0021 2.14668 37.2167 2.49143C37.2648 2.56844 37.3128 2.64545 37.3623 2.7248C37.4126 2.80568 37.4629 2.88656 37.5147 2.96989C37.6251 3.14707 37.7355 3.32424 37.8459 3.50141C37.9019 3.59124 37.9578 3.68106 38.0155 3.7736C38.1743 4.02837 38.3335 4.28288 38.493 4.53728C39.0333 5.39973 39.5702 6.26415 40.1027 7.13147C40.561 7.87772 41.0226 8.62164 41.4928 9.36043C41.6818 9.65729 41.8681 9.95569 42.0538 10.2546C42.1591 10.423 42.2645 10.5915 42.3699 10.7599C42.4192 10.8401 42.4686 10.9202 42.5195 11.0028C42.5659 11.0766 42.6123 11.1504 42.66 11.2264C42.701 11.2923 42.7419 11.3582 42.7841 11.4261C42.8994 11.6019 42.8994 11.6019 43.1514 11.6606C43.1514 8.24434 43.1514 4.82811 43.1514 1.30836C44.19 1.30836 45.2285 1.30836 46.2985 1.30836C46.2985 6.63767 46.2985 11.967 46.2985 17.4578C45.178 17.4578 44.0575 17.4578 42.903 17.4578C42.1925 16.7126 42.1925 16.7126 42.0832 16.3533C41.9036 15.8411 41.6358 15.4138 41.345 14.9577C41.2466 14.7963 41.1486 14.6347 41.0509 14.4728C40.7477 13.9744 40.4387 13.4798 40.1286 12.9856C39.6745 12.2619 39.2275 11.5342 38.7848 10.8035C38.3831 10.1417 37.973 9.4853 37.5607 8.83004C37.3064 8.42478 37.0558 8.01795 36.8123 7.60606C36.7666 7.52863 36.7208 7.45119 36.6736 7.37141C36.5874 7.22488 36.5017 7.07804 36.4167 6.93084C36.3788 6.86638 36.3409 6.80192 36.3018 6.7355C36.2526 6.65039 36.2526 6.65039 36.2023 6.56356C36.1725 6.52379 36.1427 6.48403 36.1119 6.44305C36.0573 6.44305 36.0026 6.44305 35.9463 6.44305C35.919 10.0779 35.8917 13.7128 35.8635 17.4578C34.825 17.4578 33.7864 17.4578 32.7164 17.4578C32.7164 12.1285 32.7164 6.79917 32.7164 1.30836Z" fill="#F9F9F9"/>
<path d="M63.7732 1.30836C72.9368 1.30836 72.9368 1.30836 74.2393 2.51957C75.1105 3.45511 75.4245 4.64806 75.3909 5.90603C75.3027 6.99926 74.9434 7.85469 74.1422 8.61151C73.638 9.02721 73.0858 9.3017 72.469 9.5073C72.469 9.56196 72.469 9.61662 72.469 9.67294C72.62 9.78426 72.62 9.78426 72.8107 9.89551C74.1172 10.7509 74.4937 12.4313 74.9587 13.8345C75.0157 14.0042 75.0726 14.1738 75.1297 14.3434C75.2405 14.673 75.3506 15.0028 75.4602 15.3328C75.5619 15.6391 75.6644 15.945 75.7678 16.2506C75.8028 16.3546 75.8028 16.3546 75.8386 16.4606C75.8821 16.5897 75.9259 16.7187 75.9698 16.8477C76.113 17.2735 76.113 17.2735 76.113 17.4578C75.0198 17.4578 73.9266 17.4578 72.8003 17.4578C72.4279 16.5267 72.4279 16.5267 72.3177 16.1788C72.2928 16.1009 72.2679 16.0229 72.2422 15.9426C72.2165 15.8612 72.1908 15.7798 72.1643 15.696C72.1073 15.5183 72.0502 15.3405 71.9932 15.1628C71.9049 14.8869 71.8169 14.611 71.7294 14.3348C71.2488 12.4863 71.2488 12.4863 70.0673 11.0808C69.1863 10.6296 67.8425 10.7819 67.0031 10.7496C67.0031 12.9633 67.0031 15.177 67.0031 17.4578C65.9372 17.4578 64.8714 17.4578 63.7732 17.4578C63.7732 12.1285 63.7732 6.79917 63.7732 1.30836ZM67.0031 3.87571C67.0031 5.29686 67.0031 6.71801 67.0031 8.18222C67.5172 8.18735 68.0314 8.19247 68.5611 8.19775C68.8016 8.20114 68.8016 8.20114 69.0469 8.2046C70.0503 8.21287 70.9921 8.19894 71.7693 7.48442C72.2211 6.99366 72.1823 6.30476 72.1604 5.6799C72.1139 5.03592 71.9185 4.68071 71.4358 4.25195C70.8696 3.90574 70.2994 3.83983 69.6477 3.85145C69.5801 3.8517 69.5125 3.85195 69.4428 3.8522C69.1937 3.85349 68.9447 3.85696 68.6957 3.86018C67.8578 3.86787 67.8578 3.86787 67.0031 3.87571Z" fill="#FAFAFA"/>
<path d="M12.092 2.57748C12.1476 2.62328 12.2033 2.66907 12.2606 2.71626C12.3284 2.76793 12.3961 2.8196 12.466 2.87284C13.416 3.66816 14.0158 4.79595 14.4138 5.94615C14.4394 6.01468 14.4651 6.08322 14.4915 6.15384C15.0858 7.79404 14.7848 9.77718 14.0825 11.3293C13.3393 12.8141 12.106 13.981 10.9462 15.145C10.8795 15.212 10.8795 15.212 10.8115 15.2804C10.5777 15.5154 10.3438 15.7501 10.1096 15.9847C9.86853 16.2262 9.62825 16.4685 9.38813 16.7109C9.20205 16.8986 9.01542 17.0856 8.82862 17.2725C8.7397 17.3617 8.65097 17.4511 8.56247 17.5407C8.43945 17.6651 8.31568 17.7888 8.19168 17.9122C8.08657 18.0178 8.08657 18.0178 7.97932 18.1255C7.68039 18.3768 7.68039 18.3768 7.45714 18.3688C7.25381 18.2158 7.25381 18.2158 7.02421 17.9842C6.98216 17.9423 6.94011 17.9005 6.89678 17.8573C6.75775 17.7184 6.62026 17.5781 6.48274 17.4377C6.38675 17.3412 6.29067 17.2447 6.1945 17.1483C5.99311 16.946 5.7924 16.7431 5.59221 16.5396C5.33498 16.2782 5.07669 16.0178 4.81796 15.7579C4.572 15.5107 4.32646 15.263 4.08103 15.0153C4.03385 14.9677 3.98667 14.9201 3.93805 14.8711C3.80536 14.7371 3.67298 14.6027 3.5407 14.4683C3.46519 14.3917 3.38969 14.3152 3.31189 14.2363C3.15063 14.0623 3.15063 14.0623 3.15063 13.9794C3.25287 13.9787 3.35511 13.9779 3.46045 13.9771C3.84465 13.9738 4.22881 13.9683 4.61298 13.9623C4.77834 13.9599 4.9437 13.9582 5.10907 13.957C6.89191 13.9603 6.89191 13.9603 8.39402 13.0892C8.44257 13.0448 8.49113 13.0005 8.54115 12.9549C8.67835 12.8287 8.8132 12.7004 8.94786 12.5715C9.04106 12.4867 9.04106 12.4867 9.13614 12.4001C10.0524 11.5362 10.945 10.406 11.2667 9.17603C11.2847 9.11144 11.3026 9.04685 11.3211 8.98031C11.562 7.9865 11.3773 6.90122 10.8785 6.01343C10.3223 5.14818 9.48638 4.46615 8.46842 4.23803C7.18066 4.0033 6.00661 4.13872 4.8898 4.86952C4.39449 5.21242 3.90393 5.74672 3.75526 6.34471C3.74704 6.40449 3.73882 6.46427 3.73035 6.52587C3.81159 6.55597 3.89284 6.58608 3.97654 6.6171C4.33668 6.75099 4.69621 6.88644 5.05543 7.02277C5.1376 7.05394 5.1376 7.05394 5.22143 7.08574C8.09269 8.1826 8.09269 8.1826 8.69941 9.5073C8.96413 10.1852 8.96187 10.9738 8.70199 11.6512C8.40123 12.2675 7.88879 12.7896 7.37432 13.2341C7.31966 13.2341 7.26501 13.2341 7.20869 13.2341C7.21301 13.1036 7.21301 13.1036 7.21742 12.9704C7.23863 12.0622 7.17181 11.4267 6.62897 10.6667C6.60164 10.5848 6.57431 10.5028 6.54615 10.4183C6.39305 10.3299 6.39305 10.3299 6.21488 10.2527C6.10533 10.178 5.99669 10.102 5.88878 10.0249C4.88397 9.3556 3.73702 9.02875 2.59679 8.66877C2.35845 8.59306 2.12017 8.51715 1.882 8.44091C1.73508 8.39392 1.58805 8.34724 1.44091 8.30096C0.952197 8.14529 0.47743 7.96428 0.00356229 7.76813C-0.0134759 7.24511 0.0285431 6.80491 0.174374 6.3033C0.192929 6.23885 0.211485 6.1744 0.230603 6.108C0.820396 4.1537 2.14835 2.67557 3.92187 1.70175C6.54848 0.311754 9.81144 0.736322 12.092 2.57748Z" fill="#F4F4F4"/>
<path d="M82.5727 1.30836C83.9392 1.30836 85.3057 1.30836 86.7136 1.30836C87.0862 2.23999 87.0862 2.23999 87.2185 2.62596C87.2635 2.75699 87.2635 2.75699 87.3095 2.89066C87.3411 2.98321 87.3727 3.07576 87.4052 3.17111C87.4575 3.32328 87.5097 3.47545 87.562 3.62762C87.6173 3.78889 87.6726 3.9502 87.7278 4.11152C87.8439 4.45081 87.9603 4.79 88.0768 5.12917C88.0964 5.18632 88.116 5.24346 88.1363 5.30233C88.1761 5.41823 88.2159 5.53413 88.2557 5.65003C88.3158 5.82503 88.3758 6.00004 88.4359 6.17506C88.802 7.2416 89.1705 8.30729 89.5397 9.37272C89.6602 9.72038 89.7806 10.068 89.9011 10.4157C89.931 10.5021 89.961 10.5885 89.9918 10.6776C90.211 11.3105 90.4298 11.9436 90.6483 12.5768C90.7025 12.7339 90.7567 12.891 90.8109 13.0481C91.0908 13.8589 91.0908 13.8589 91.23 14.2625C91.3253 14.5389 91.4206 14.8153 91.516 15.0917C91.5455 15.177 91.5749 15.2624 91.6052 15.3503C91.7296 15.7103 91.8547 16.0699 91.9849 16.4278C92.0048 16.4824 92.0246 16.5371 92.0451 16.5933C92.0953 16.7306 92.1462 16.8676 92.1971 17.0046C92.2624 17.2093 92.2624 17.2093 92.2624 17.4578C91.1418 17.4578 90.0213 17.4578 88.8668 17.4578C88.7032 16.9788 88.5396 16.4997 88.376 16.0207C88.3203 15.8577 88.2647 15.6947 88.209 15.5317C88.129 15.2976 88.0491 15.0634 87.9691 14.8293C87.9442 14.7563 87.9192 14.6833 87.8935 14.6081C87.8703 14.5402 87.8471 14.4722 87.8232 14.4022C87.8028 14.3424 87.7824 14.2826 87.7614 14.2211C87.7153 14.0855 87.6699 13.9497 87.6246 13.8138C84.591 13.7728 84.591 13.7728 81.4961 13.731C81.4414 14.0043 81.3868 14.2776 81.3304 14.5592C81.2567 14.8004 81.1807 15.0367 81.0969 15.2741C81.0775 15.3303 81.0581 15.3864 81.0382 15.4443C80.9671 15.6498 80.8951 15.855 80.8232 16.0602C80.6626 16.5214 80.5021 16.9826 80.3366 17.4578C79.2434 17.4578 78.1502 17.4578 77.0239 17.4578C77.2103 16.6192 77.2103 16.6192 77.3559 16.1978C77.3884 16.1031 77.4209 16.0084 77.4544 15.9108C77.4895 15.81 77.5245 15.7092 77.5606 15.6054C77.5978 15.4975 77.635 15.3896 77.6722 15.2816C77.7714 14.9935 77.8712 14.7055 77.9711 14.4176C78.076 14.1151 78.1804 13.8123 78.2848 13.5097C78.7762 12.0867 79.2707 10.6648 79.7687 9.24415C80.0741 8.37187 80.3752 7.49816 80.6741 6.62364C80.7388 6.43458 80.8034 6.24553 80.8681 6.05649C81.0613 5.49167 81.2544 4.92682 81.4467 4.3617C81.5269 4.12617 81.6074 3.89074 81.688 3.65532C81.7254 3.54576 81.7627 3.43615 81.7999 3.3265C81.8518 3.17351 81.9041 3.02068 81.9565 2.86785C81.9856 2.78222 82.0148 2.6966 82.0449 2.60838C82.2077 2.16996 82.3928 1.74008 82.5727 1.30836ZM84.4775 4.70388C84.2295 5.34174 84.0193 5.99188 83.8062 6.64201C83.7657 6.76527 83.7253 6.88853 83.6847 7.01179C83.6004 7.26868 83.5161 7.5256 83.4319 7.78255C83.3237 8.11253 83.2153 8.44243 83.1069 8.77232C83.0234 9.02613 82.9401 9.27998 82.8569 9.53384C82.8169 9.6556 82.7769 9.77735 82.7369 9.89909C82.6813 10.0683 82.6258 10.2376 82.5704 10.407C82.5388 10.5033 82.5071 10.5997 82.4746 10.699C82.403 10.8906 82.403 10.8906 82.4071 10.998C83.8282 10.998 85.2494 10.998 86.7136 10.998C86.6098 10.5311 86.5099 10.1071 86.3619 9.65868C86.3441 9.60445 86.3263 9.55023 86.308 9.49435C86.2501 9.31815 86.1916 9.14211 86.1332 8.96608C86.0926 8.84275 86.052 8.71941 86.0114 8.59606C85.9052 8.27369 85.7986 7.95147 85.692 7.62928C85.5829 7.29957 85.4742 6.96974 85.3655 6.63991C85.1527 5.99443 84.9395 5.34911 84.726 4.70388C84.644 4.70388 84.562 4.70388 84.4775 4.70388Z" fill="#F9F9F9"/>
<path d="M109.985 1.30836C113.565 1.30836 117.146 1.30836 120.834 1.30836C120.834 2.18292 120.834 3.05747 120.834 3.95853C120.682 4.11038 120.47 4.05128 120.268 4.05165C120.199 4.05135 120.129 4.05105 120.058 4.05075C119.949 4.05076 119.949 4.05076 119.838 4.05078C119.596 4.05072 119.354 4.05008 119.113 4.04943C118.946 4.04928 118.779 4.04916 118.612 4.04908C118.172 4.04876 117.731 4.04795 117.291 4.04703C116.763 4.04604 116.235 4.04565 115.707 4.04517C114.904 4.04437 114.101 4.04278 113.298 4.04134C113.298 5.24385 113.298 6.44637 113.298 7.68532C115.457 7.68532 117.616 7.68532 119.841 7.68532C119.841 8.5872 119.841 9.48908 119.841 10.4183C117.681 10.4183 115.522 10.4183 113.298 10.4183C113.298 11.8394 113.298 13.2606 113.298 14.7248C115.84 14.7248 118.381 14.7248 121 14.7248C121 15.6267 121 16.5286 121 17.4578C117.365 17.4578 113.73 17.4578 109.985 17.4578C109.985 12.1285 109.985 6.79917 109.985 1.30836Z" fill="#F6F6F6"/>
<path d="M105.679 2.43159C106.325 2.96491 107.029 3.79428 107.252 4.62108C107.099 5.09041 106.612 5.27199 106.212 5.50809C106.068 5.59384 105.924 5.6814 105.78 5.7692C105.689 5.82376 105.598 5.87831 105.504 5.93452C105.42 5.98445 105.337 6.03439 105.251 6.08584C105.007 6.19903 104.867 6.23651 104.602 6.19461C104.443 5.9824 104.443 5.9824 104.292 5.69771C103.812 4.85238 103.196 4.35225 102.264 4.06789C101.071 3.77653 99.7517 3.90513 98.6703 4.49265C97.743 5.09811 97.2488 6.03609 96.9932 7.09526C96.602 8.99217 96.5437 11.5009 97.615 13.2001C98.2816 14.0984 99.1183 14.6185 100.234 14.7847C101.464 14.9089 102.707 14.7262 103.692 13.9274C104.226 13.3469 104.547 12.5727 104.768 11.8262C105.183 11.8684 105.489 11.9564 105.857 12.1526C105.949 12.2009 106.04 12.2492 106.134 12.299C106.228 12.3497 106.322 12.4003 106.419 12.4525C106.515 12.5035 106.611 12.5545 106.71 12.607C106.947 12.7324 107.182 12.8587 107.418 12.9857C107.263 14.3104 106.466 15.572 105.441 16.41C103.739 17.6581 101.643 17.9358 99.5777 17.6616C97.7092 17.3617 96.0084 16.4681 94.871 14.9319C93.3173 12.6012 93.0337 9.70131 93.5423 6.98664C93.8551 5.49114 94.5036 4.00629 95.6578 2.96473C95.7112 2.91391 95.7645 2.8631 95.8195 2.81074C98.3429 0.46382 102.943 0.400975 105.679 2.43159Z" fill="#F8F8F8"/>
<path d="M48.7002 1.30836C52.8543 1.30836 57.0085 1.30836 61.2885 1.30836C61.2885 2.21025 61.2885 3.11213 61.2885 4.04134C59.758 4.04134 58.2275 4.04134 56.6507 4.04134C56.6507 8.46877 56.6507 12.8962 56.6507 17.4578C55.5848 17.4578 54.519 17.4578 53.4208 17.4578C53.4208 13.0304 53.4208 8.60294 53.4208 4.04134C51.863 4.04134 50.3052 4.04134 48.7002 4.04134C48.7002 3.13946 48.7002 2.23758 48.7002 1.30836Z" fill="#FAFAFA"/>
<path d="M25.3456 1.30836C26.4114 1.30836 27.4773 1.30836 28.5755 1.30836C28.5755 6.63767 28.5755 11.967 28.5755 17.4578C27.5096 17.4578 26.4437 17.4578 25.3456 17.4578C25.3456 12.1285 25.3456 6.79917 25.3456 1.30836Z" fill="#FBFBFB"/>
</svg>
